<?xml version="1.0" encoding="UTF-8" standalone="no"?>
<!-- Created with Inkscape (http://www.inkscape.org/) -->

<svg
   xmlns:dc="http://purl.org/dc/elements/1.1/"
   xmlns:cc="http://creativecommons.org/ns#"
   xmlns:rdf="http://www.w3.org/1999/02/22-rdf-syntax-ns#"
   xmlns:svg="http://www.w3.org/2000/svg"
   xmlns="http://www.w3.org/2000/svg"
   xmlns:sodipodi="http://sodipodi.sourceforge.net/DTD/sodipodi-0.dtd"
   xmlns:inkscape="http://www.inkscape.org/namespaces/inkscape"
   version="1.0"
   x="0.00000000"
   y="0.00000000"
   width="90"
   height="90"
   id="svg548"
   sodipodi:version="0.32"
   sodipodi:docname="back.svg"
   inkscape:version="0.92.4 (5da689c313, 2019-01-14)"
   inkscape:output_extension="org.inkscape.output.svg.inkscape"
   inkscape:export-filename="/home/dumao/图片/icons/back.png"
   inkscape:export-xdpi="136.53334"
   inkscape:export-ydpi="136.53334">
  <metadata
     id="metadata23">
    <rdf:RDF>
      <cc:Work
         rdf:about="">
        <dc:format>image/svg+xml</dc:format>
        <dc:type
           rdf:resource="http://purl.org/dc/dcmitype/StillImage" />
        <dc:title />
      </cc:Work>
    </rdf:RDF>
  </metadata>
  <sodipodi:namedview
     id="base"
     inkscape:zoom="3.8026632"
     inkscape:cx="-11.689954"
     inkscape:cy="27.562155"
     inkscape:window-width="1014"
     inkscape:window-height="724"
     inkscape:window-x="1287"
     inkscape:window-y="1189"
     showguides="true"
     snaptoguides="true"
     inkscape:current-layer="svg548"
     width="90px"
     height="90px"
     showgrid="false"
     inkscape:snap-global="false"
     inkscape:window-maximized="0" />
  <defs
     id="defs550" />
  <g
     transform="matrix(2.1945584,1.8633862,-3.0124622,1.3574644,17.53391,-98.91022)"
     style="font-size:12px"
     id="g584">
    <path
       d="m 52.677189,36.143792 c 1.551942,1.300857 13.048376,-1.163284 13.333176,-3.299284 0.415381,-5.322799 -9.631178,-11.815024 -11.783926,-12.382453 -1.569149,-0.413603 -3.147901,-1.15633 -3.575101,-0.159531 -1.389669,3.622335 -1.084532,14.965772 2.025851,15.841268 z"
       style="fill:#000000;fill-rule:evenodd;stroke-width:1.00000003pt"
       id="path582"
       sodipodi:nodetypes="ccscc"
       transform="matrix(1.369638,0,0,1.207417,-21.85404,-4.997635)"
       inkscape:connector-curvature="0" />
    <path
       d="M 50.481085,37.164315 C 52.628408,38.096023 64.2247,34.8892 64.5095,32.7532 64.7943,30.6171 62.545154,29.041241 62.972354,27.617241 58.20355,23.07762 49.811858,19.688329 49.384658,20.685129 c -1.002813,1.240697 -1.765049,16.014145 1.096427,16.479186 z"
       style="fill:#2aaf18;fill-rule:evenodd;stroke-width:1.00000003pt"
       id="path581"
       sodipodi:nodetypes="ccccc"
       inkscape:connector-curvature="0" />
    <path
       d="m 62.972354,27.617241 c 1.5664,1.2816 4.289558,5.416869 3.292758,6.271369 -1.7088,1.5664 -14.659586,4.011487 -15.784027,3.275705 -1.1392,-0.5697 9.613815,-3.699115 9.756215,-6.120015 0.1424,-2.4209 -2.779218,-3.049172 -1.924818,-4.473272 0.584829,-1.053961 4.232672,0.476613 4.659872,1.046213 z"
       style="fill:#208c11;fill-rule:evenodd;stroke-width:1.00000003pt"
       id="path583"
       sodipodi:nodetypes="cccccc"
       inkscape:connector-curvature="0" />
  </g>
  <path
     d="m 29.883445,40.488127 c 0,0 20.712403,-12.689735 25.870647,-13.575684 5.157909,-0.885768 2.263972,5.213147 2.263972,5.213147 0,0 -26.202998,6.053676 -28.134619,8.362537 z"
     style="font-size:12px;fill:#ffffff;fill-rule:evenodd;stroke-width:1.06492791pt"
     id="path589"
     inkscape:connector-curvature="0" />
</svg>
