<?xml version="1.0" encoding="UTF-8" standalone="no"?>
<!-- Created with Inkscape (http://www.inkscape.org/) -->

<svg
   xmlns:dc="http://purl.org/dc/elements/1.1/"
   xmlns:cc="http://creativecommons.org/ns#"
   xmlns:rdf="http://www.w3.org/1999/02/22-rdf-syntax-ns#"
   xmlns:svg="http://www.w3.org/2000/svg"
   xmlns="http://www.w3.org/2000/svg"
   xmlns:sodipodi="http://sodipodi.sourceforge.net/DTD/sodipodi-0.dtd"
   xmlns:inkscape="http://www.inkscape.org/namespaces/inkscape"
   version="1.0"
   x="0.00000000"
   y="0.00000000"
   width="90"
   height="90"
   id="svg548"
   sodipodi:version="0.32"
   sodipodi:docname="down.svg"
   inkscape:version="0.92.4 (5da689c313, 2019-01-14)"
   inkscape:output_extension="org.inkscape.output.svg.inkscape">
  <metadata
     id="metadata23">
    <rdf:RDF>
      <cc:Work
         rdf:about="">
        <dc:format>image/svg+xml</dc:format>
        <dc:type
           rdf:resource="http://purl.org/dc/dcmitype/StillImage" />
        <dc:title></dc:title>
      </cc:Work>
    </rdf:RDF>
  </metadata>
  <sodipodi:namedview
     id="base"
     inkscape:zoom="3.8026632"
     inkscape:cx="-18.149135"
     inkscape:cy="48.600042"
     inkscape:window-width="1014"
     inkscape:window-height="724"
     inkscape:window-x="1517"
     inkscape:window-y="990"
     showguides="true"
     snaptoguides="true"
     inkscape:current-layer="svg548"
     width="90px"
     height="90px"
     showgrid="false"
     inkscape:snap-global="false"
     inkscape:window-maximized="0" />
  <defs
     id="defs550" />
  <g
     transform="matrix(-2.6263269,-2.608398,-1.9132615,3.5805382,250.22133,76.329206)"
     style="font-size:12px"
     id="g584">
    <path
       d="m 52.507284,36.003387 c 2.073543,0.758638 12.821835,-1.35049 13.106635,-3.48649 0.415381,-5.322799 -9.234732,-11.487413 -11.38748,-12.054842 -1.569149,-0.413603 -2.757049,-0.954999 -3.184249,0.0418 -1.389669,3.622335 -1.146761,14.792692 1.465094,15.499531 z"
       style="fill:#000000;fill-rule:evenodd;stroke-width:1.00000003pt"
       id="path582"
       sodipodi:nodetypes="ccscc"
       transform="matrix(1.369638,0,0,1.207417,-21.85404,-4.997635)"
       inkscape:connector-curvature="0" />
    <path
       d="M 50.481085,37.164315 C 52.628408,38.096023 64.2247,34.8892 64.5095,32.7532 64.7943,30.6171 62.545154,29.041241 62.972354,27.617241 58.20355,23.07762 49.811858,19.688329 49.384658,20.685129 c -1.002813,1.240697 -1.765049,16.014145 1.096427,16.479186 z"
       style="fill:#2aaf18;fill-rule:evenodd;stroke-width:1.00000003pt"
       id="path581"
       sodipodi:nodetypes="ccccc"
       inkscape:connector-curvature="0" />
    <path
       d="m 62.972354,27.617241 c 1.5664,1.2816 4.289558,5.416869 3.292758,6.271369 -1.7088,1.5664 -14.659586,4.011487 -15.784027,3.275705 -1.1392,-0.5697 9.613815,-3.699115 9.756215,-6.120015 0.1424,-2.4209 -2.779218,-3.049172 -1.924818,-4.473272 0.584829,-1.053961 4.232672,0.476613 4.659872,1.046213 z"
       style="fill:#208c11;fill-rule:evenodd;stroke-width:1.00000003pt"
       id="path583"
       sodipodi:nodetypes="cccccc"
       inkscape:connector-curvature="0" />
  </g>
  <path
     d="m 51.824056,66.59919 c 0,0 17.885392,-24.618251 19.13408,-30.749212 1.248435,-6.130564 -7.347605,-2.690902 -7.347605,-2.690902 0,0 -8.53228,31.144237 -11.786475,33.440114 z"
     style="font-size:12px;fill:#ffffff;fill-rule:evenodd;stroke-width:1.37834045pt"
     id="path589"
     inkscape:connector-curvature="0" />
</svg>
