<?xml version="1.0" encoding="UTF-8" standalone="no"?>
<!-- Created with Sodipodi ("http://www.sodipodi.com/") -->

<svg
   xmlns:dc="http://purl.org/dc/elements/1.1/"
   xmlns:cc="http://creativecommons.org/ns#"
   xmlns:rdf="http://www.w3.org/1999/02/22-rdf-syntax-ns#"
   xmlns:svg="http://www.w3.org/2000/svg"
   xmlns="http://www.w3.org/2000/svg"
   xmlns:sodipodi="http://sodipodi.sourceforge.net/DTD/sodipodi-0.dtd"
   xmlns:inkscape="http://www.inkscape.org/namespaces/inkscape"
   version="1.0"
   x="0"
   y="0"
   width="90"
   height="90"
   id="svg602"
   xml:space="preserve"
   sodipodi:version="0.32"
   inkscape:version="0.92.4 (5da689c313, 2019-01-14)"
   sodipodi:docname="keyboard_off.svg"
   inkscape:output_extension="org.inkscape.output.svg.inkscape"
   inkscape:export-filename="/home/dumao/图片/icons/keyboard_off.png"
   inkscape:export-xdpi="136.53334"
   inkscape:export-ydpi="136.53334"><metadata
     id="metadata4130"><rdf:RDF><cc:Work
         rdf:about=""><dc:format>image/svg+xml</dc:format><dc:type
           rdf:resource="http://purl.org/dc/dcmitype/StillImage" /><dc:title></dc:title></cc:Work></rdf:RDF></metadata><sodipodi:namedview
     inkscape:window-height="619"
     inkscape:window-width="800"
     inkscape:pageshadow="2"
     inkscape:pageopacity="0.0"
     guidetolerance="10.0"
     gridtolerance="10.0"
     objecttolerance="10.0"
     borderopacity="1.0"
     bordercolor="#666666"
     pagecolor="#ffffff"
     id="base"
     inkscape:zoom="3.1976941"
     inkscape:cx="54.682996"
     inkscape:cy="67.454969"
     inkscape:window-x="1394"
     inkscape:window-y="620"
     inkscape:current-layer="svg602"
     showgrid="false"
     inkscape:window-maximized="0" /><defs
     id="defs604" /><path
     d="M 28.40699 28.65262 C 28.40699 28.65262 6.264039 21.81993 11.16912 37.04364 C 16.0742 52.26735 30.22888 60.29875 30.22888 60.29875 "
     style="font-size:12;fill:none;fill-rule:evenodd;stroke:#283d53;stroke-width:5.35;stroke-linecap:round"
     id="path684" /><path
     d="M 10.21814 44.17174 C 10.21814 44.17174 3.589016 50.35892 4.030957 53.89446 C 4.472899 57.43 9.334263 63.17525 11.10203 64.50107 C 13.31174 67.59467 12.42785 65.8269 15.96339 66.26883 C 22.15057 75.54961 30.10552 81.73681 35.85077 83.94652 C 39.38631 82.62069 86.23215 34.44901 87.99991 30.47154 C 87.55797 26.93601 84.90634 21.63271 79.16108 18.98106 C 73.41583 16.3294 61.04146 11.0261 58.83175 12.35192 C 55.29621 11.0261 39.38631 22.51659 36.73465 25.16824 C 34.96689 23.40048 31.87329 22.95853 30.10553 23.40047 C 28.33776 23.84241 22.59251 29.58766 23.4764 30.91348 C 24.36028 32.23931 25.24417 33.56514 25.24417 33.56514 L 10.21814 44.17174 z "
     style="font-size:12;fill-rule:evenodd;stroke-width:1;fill:#000000"
     id="path683" /><path
     d="M 28.40699 28.65262 C 28.40699 28.65262 6.264039 21.81993 11.16912 37.04364 C 16.0742 52.26735 30.22888 60.29875 30.22888 60.29875 "
     style="font-size:12;fill:none;fill-rule:evenodd;stroke:#ffc93f;stroke-width:1.970112;stroke-linecap:round"
     id="path682" /><path
     d="M 30.64932 32.48851 L 26.72525 30.57056 C 26.72525 30.57056 28.26684 26.25519 30.50916 27.21416 C 32.75148 28.17314 34.99381 29.97121 34.99381 29.97121 L 30.64932 32.48851 z "
     style="font-size:12;fill:#437caf;fill-rule:evenodd;stroke-width:1;"
     id="path676" /><path
     d="M 9.057813 48.52887 C 9.057813 48.52887 7.755119 50.75737 8.127319 54.1001 C 9.057813 56.96529 9.243913 59.35296 17.80447 63.65078 C 19.66546 65.87926 34.36728 80.04609 36.60046 78.93185 C 38.83366 77.8176 83.12525 31.65601 84.80014 29.26835 C 84.98625 27.83575 85.17234 25.92561 83.31135 26.08479 C 81.45036 26.24397 9.057813 48.52887 9.057813 48.52887 z "
     style="font-size:12;fill:#437caf;fill-rule:evenodd;stroke-width:1;"
     id="path652" /><path
     d="M 9.982833 47.56079 C 9.982833 47.56079 7.350989 50.71235 9.588063 52.96346 C 11.82512 55.21458 34.7221 75.92484 35.90644 75.92484 C 37.09077 75.92484 82.88476 28.76397 84.85863 27.07564 C 86.83251 25.38731 63.40915 14.80707 59.1982 14.91963 C 54.98726 15.03218 13.00945 44.52179 9.982833 47.56079 z "
     style="font-size:12;fill:#558ada;fill-rule:evenodd;stroke-width:1"
     id="path616" /><g
     id="g4142"
     style="fill:#a9e2f5"><path
       id="path653"
       style="font-size:12;fill:#a9e2f5;fill-rule:evenodd;stroke-width:1"
       d="M 40.88076 61.89982 C 40.88076 61.89982 43.11394 65.56091 44.41664 64.60583 C 45.71933 63.65077 70.09831 40.72916 69.54001 39.61492 C 68.98172 38.50067 67.67902 37.06806 66.37633 37.70477 C 65.07364 38.34149 41.62516 60.94474 40.88076 61.89982 z " /><path
       id="path660"
       style="font-size:12;fill:#a9e2f5;fill-rule:evenodd;stroke-width:1"
       d="M 10.9188 49.80229 L 14.26859 52.6675 L 18.54887 48.52887 L 14.82688 46.30038 L 10.9188 49.80229 z " /><path
       id="path661"
       style="font-size:12;fill:#a9e2f5;fill-rule:evenodd;stroke-width:1"
       d="M 18.54887 44.70861 L 21.89865 47.57381 L 29.15651 41.04753 L 25.43453 38.81903 L 18.54887 44.70861 z " /><path
       id="path662"
       style="font-size:12;fill:#a9e2f5;fill-rule:evenodd;stroke-width:1"
       d="M 28.22601 36.74971 L 31.7619 39.93327 L 39.76415 34.20287 L 36.60048 31.49684 L 28.22601 36.74971 z " /><path
       id="path663"
       style="font-size:12;fill:#a9e2f5;fill-rule:evenodd;stroke-width:1"
       d="M 39.39197 29.58671 L 42.55564 32.29273 L 50.5579 27.03986 L 47.39423 24.49301 L 39.39197 29.58671 z " /><path
       id="path664"
       style="font-size:12;fill:#a9e2f5;fill-rule:evenodd;stroke-width:1"
       d="M 51.1162 21.94617 L 54.46598 24.81137 L 62.28214 19.08097 L 58.93237 16.53412 L 51.1162 21.94617 z " /><path
       id="path665"
       style="font-size:12;fill:#a9e2f5;fill-rule:evenodd;stroke-width:1"
       d="M 58.56017 29.26835 L 65.25973 33.72533 L 59.30457 38.65984 L 56.51307 37.38642 L 58.00188 34.20287 L 52.23279 30.86013 L 58.56017 29.26835 z " /><path
       id="path666"
       style="font-size:12;fill:#a9e2f5;fill-rule:evenodd;stroke-width:1"
       d="M 50.9301 31.81519 L 15.94348 55.85105 C 15.94348 55.85105 33.62289 73.04227 33.80898 72.56474 C 33.99509 72.0872 42.55565 65.56091 42.55565 65.56091 L 38.83366 61.42228 L 67.12073 35.95382 L 65.81803 34.52121 L 58.93236 39.77409 L 55.39649 37.38642 L 56.32698 34.20287 L 50.9301 31.81519 z " /><path
       id="path667"
       style="font-size:12;fill:#a9e2f5;fill-rule:evenodd;stroke-width:1"
       d="M 63.39875 20.19522 L 80.51986 25.76644 L 71.9593 37.38642 L 56.51307 26.7215 L 63.39875 20.19522 z " /></g><g
     id="g4132"
     style="fill:#558ada;stroke:#558ada"><path
       id="path668"
       style="font-size:12;fill:#558ada;fill-rule:evenodd;stroke:#558ada;stroke-width:0.829521"
       d="M 17.19537 58.8603 C 17.75595 58.62055 55.03456 33.44749 55.03456 33.44749 " /><path
       id="path669"
       style="font-size:12;fill:#558ada;fill-rule:evenodd;stroke:#558ada;stroke-width:0.829521"
       d="M 21.68001 63.17568 L 56.9966 38.24236 " /><path
       id="path670"
       style="font-size:12;fill:#558ada;fill-rule:evenodd;stroke:#558ada;stroke-width:0.829521"
       d="M 26.16465 67.49106 L 59.51922 39.20133 " /><path
       id="path671"
       style="font-size:12;fill:#558ada;fill-rule:evenodd;stroke:#558ada;stroke-width:0.829521"
       d="M 21.96031 50.70903 L 38.77773 68.68978 " /><path
       id="path672"
       style="font-size:12;fill:#558ada;fill-rule:evenodd;stroke:#558ada;stroke-width:0.829521"
       d="M 29.24785 45.43467 L 39.61859 61.49748 " /><path
       id="path673"
       style="font-size:12;fill:#558ada;fill-rule:evenodd;stroke:#558ada;stroke-width:0.829521"
       d="M 36.53541 41.59878 L 46.90614 54.30518 " /><path
       id="path674"
       style="font-size:12;fill:#558ada;fill-rule:evenodd;stroke:#558ada;stroke-width:0.829521"
       d="M 41.30034 38.24236 L 53.9134 47.8321 " /><path
       id="path675"
       style="font-size:12;fill:#558ada;fill-rule:evenodd;stroke:#558ada;stroke-width:0.829521"
       d="M 46.06528 34.64621 L 56.43602 38.48211 " /></g><path
     d="M 29.6683 27.81352 L 33.31207 29.73147 C 33.31207 29.73147 33.03178 30.57056 32.33105 30.33082 C 31.63033 30.09107 28.82743 28.41287 28.82743 28.41287 L 29.6683 27.81352 z "
     style="font-size:12;fill:#ffffff;fill-rule:evenodd;stroke-width:1;"
     id="path681" /><path
     inkscape:connector-curvature="0"
     style="font-size:12px;fill:#000000;fill-opacity:1;fill-rule:evenodd;stroke:none;stroke-width:0.55984546pt;stroke-opacity:1"
     d="m 58.608298,44.764769 c -1.546932,-1.568622 -5.307569,0.862977 -6.886713,2.399158 -1.579146,1.536182 -4.439813,4.92874 -2.900884,6.505205 l 8.356848,8.56068 -8.643822,8.049059 c -1.612292,1.501354 0.336094,5.059571 1.872275,6.638717 1.536182,1.579144 5.580847,4.498887 7.188457,2.992511 l 8.826042,-8.270249 8.007376,7.763227 c 1.581739,1.533512 5.030702,-0.339529 6.609846,-1.875711 1.579144,-1.53618 4.044212,-5.251262 2.552293,-6.872289 l -7.593869,-8.251028 8.266996,-8.854073 c 1.50351,-1.610281 -1.559823,-5.390229 -3.096005,-6.969373 -1.536181,-1.579146 -3.885961,-3.540561 -5.495634,-2.036406 l -8.993227,8.403698 z"
     id="path584"
     sodipodi:nodetypes="ssscssscssscssscs" /><path
     inkscape:connector-curvature="0"
     style="font-size:12px;fill:#ff1500;fill-opacity:1;fill-rule:evenodd;stroke:none;stroke-width:0.35756904pt"
     d="m 57.413651,48.412797 c -0.74589,-0.764295 -2.617788,0.372126 -3.38328,1.116792 -0.765491,0.744665 -1.953723,2.585118 -1.209666,3.3512 l 8.974616,9.24029 -9.908957,9.668206 c -0.764379,0.745807 0.434194,2.557414 1.178859,3.322906 0.744666,0.765491 2.525494,2.016609 3.289138,1.270045 l 9.9215,-9.699632 9.24708,9.535343 c 0.74347,0.766651 2.79893,-0.185926 3.56442,-0.930591 0.76549,-0.744665 1.76961,-2.768434 1.02853,-3.537401 l -9.19824,-9.544416 9.4566,-9.189698 c 0.76588,-0.744267 -0.37213,-2.617794 -1.11679,-3.383286 -0.74467,-0.765492 -2.58377,-1.952336 -3.3512,-1.209667 l -9.50545,9.198772 z"
     id="path589"
     sodipodi:nodetypes="csscssscssscssscs" /><path
     inkscape:connector-curvature="0"
     style="font-size:12px;fill:#cb0000;fill-opacity:1;fill-rule:evenodd;stroke:none;stroke-width:0.35756904pt"
     d="m 64.845551,64.142485 -9.774574,9.644153 c -0.387875,0.382701 -0.587003,0.762572 -0.207056,1.153145 0.379947,0.390574 1.43489,0.890454 1.82258,0.507559 l 9.78096,-9.660189 9.42591,9.828831 c 0.37716,0.393274 1.50569,-0.01509 1.89626,-0.395038 0.39057,-0.379946 0.14098,-0.826621 -0.23555,-1.220481 l -9.40099,-9.833461 c -1.07217,-1.121494 -2.20309,-1.114235 -3.30754,-0.02452 z"
     id="path592"
     sodipodi:nodetypes="cssscsssss" /><path
     inkscape:connector-curvature="0"
     style="font-size:12px;fill:#ffffff;fill-opacity:1;fill-rule:evenodd;stroke:none;stroke-width:0.35756904pt"
     d="m 68.107281,60.962583 9.40048,-9.159439 c 0.39027,-0.380261 0.52662,-0.824639 0.14668,-1.215211 -0.37995,-0.390573 -1.43251,-0.888028 -1.82258,-0.507559 l -9.40688,9.175474 -8.8825,-9.27023 c -0.37698,-0.393436 -1.50569,0.01509 -1.89626,0.395038 -0.390573,0.379946 -0.140773,0.826423 0.23556,1.220482 l 8.85757,9.27486 c 1.07158,1.122058 2.25667,1.169354 3.36793,0.08658 z"
     id="path594"
     sodipodi:nodetypes="cssscsssss" /></svg>