<?xml version="1.0" encoding="UTF-8" standalone="no"?>
<!-- Created with Sodipodi ("http://www.sodipodi.com/") -->

<svg
   xmlns:dc="http://purl.org/dc/elements/1.1/"
   xmlns:cc="http://creativecommons.org/ns#"
   xmlns:rdf="http://www.w3.org/1999/02/22-rdf-syntax-ns#"
   xmlns:svg="http://www.w3.org/2000/svg"
   xmlns="http://www.w3.org/2000/svg"
   xmlns:sodipodi="http://sodipodi.sourceforge.net/DTD/sodipodi-0.dtd"
   xmlns:inkscape="http://www.inkscape.org/namespaces/inkscape"
   id="svg548"
   sodipodi:version="0.32"
   width="90"
   height="90"
   sodipodi:docname="main_about.svg"
   inkscape:version="0.92.4 (5da689c313, 2019-01-14)"
   inkscape:output_extension="org.inkscape.output.svg.inkscape"
   version="1.0">
  <metadata
     id="metadata15">
    <rdf:RDF>
      <cc:Work
         rdf:about="">
        <dc:format>image/svg+xml</dc:format>
        <dc:type
           rdf:resource="http://purl.org/dc/dcmitype/StillImage" />
        <dc:title></dc:title>
      </cc:Work>
    </rdf:RDF>
  </metadata>
  <defs
     id="defs550" />
  <sodipodi:namedview
     id="base"
     inkscape:zoom="5.0416666"
     inkscape:cx="12.279375"
     inkscape:cy="48.663693"
     inkscape:window-width="940"
     inkscape:window-height="724"
     inkscape:window-x="1898"
     inkscape:window-y="1272"
     inkscape:current-layer="svg548"
     width="90px"
     height="90px"
     showgrid="false"
     inkscape:snap-global="false"
     inkscape:window-maximized="0" />
  <path
     style="font-size:12px;fill-opacity:0.3;fill-rule:evenodd;stroke-width:0.95511165pt"
     d="m 35.697492,38.293228 5.840885,-3.369416 25.863901,2.904899 -8.48666,36.48515 -7.257165,10.262092 -21.755697,-1.130127 z"
     id="path574"
     sodipodi:nodetypes="ccccccc"
     inkscape:connector-curvature="0" />
  <path
     style="font-size:12px;fill:#000000;fill-opacity:1;fill-rule:evenodd;stroke-width:1.00000003pt"
     d="M 25.007009,37.505709 38.744245,29.757423 63.92868,34.655965 54.475831,75.305853 46.410073,85.559639 26.443041,84.734532 Z"
     id="path570"
     sodipodi:nodetypes="ccccccc"
     inkscape:connector-curvature="0" />
  <path
     style="font-size:12px;fill:none;fill-rule:evenodd;stroke-width:1pt"
     d="M 49.831252,81.101515 L 54.529152,76.247014 L 47.494626,36.252637 L 40.154593,34.76377 L 35.742945,39.86419 L 44.842582,40.888921 L 49.831252,81.101515 z "
     id="path568" />
  <path
     style="font-size:12px;fill:#3771c8;fill-rule:evenodd;stroke-width:1pt;fill-opacity:1"
     d="M 44.007931,81.40075 L 51.205882,43.313656 L 29.79522,40.14103 L 39.763137,35.168272 L 58.636885,37.844437 L 50.084457,73.902898 L 44.007931,81.40075 z "
     id="path569"
     sodipodi:nodetypes="ccccccc" />
  <path
     style="font-size:12px;fill:#18beff;fill-opacity:1;fill-rule:evenodd;stroke-width:1pt"
     d="M 30.091165,81.185668 L 29.253954,40.273075 L 52.159543,42.492421 L 44.256223,81.669139 L 30.091165,81.185668 z "
     id="path567"
     sodipodi:nodetypes="ccccc" />
  <ellipse
     style="font-size:12px;fill-opacity:0.3;fill-rule:evenodd;stroke-width:1.54228789pt"
     id="path575"
     transform="matrix(0.99905414,-0.04348372,-0.04898409,-0.99879956,0,0)"
     cx="45.166843"
     cy="-23.104919"
     rx="18.774706"
     ry="16.635031" />
  <path
     sodipodi:type="arc"
     style="font-size:12px;fill:#000000;fill-rule:evenodd;stroke-width:1pt;fill-opacity:1"
     id="path558"
     d="M 51.947845 68.73909 A 11.939625 10.997026 0 1 1  28.068596,68.73909 A 11.939625 10.997026 0 1 1  51.947845 68.73909 z"
     sodipodi:cx="40.008221"
     sodipodi:cy="68.73909"
     sodipodi:rx="11.939625"
     sodipodi:ry="10.997026"
     transform="matrix(1.51653,-6.600687e-2,-7.444173e-2,-1.517886,-11.28155,129.33242)" />
  <path
     style="font-size:12px;fill:#3771c8;fill-rule:evenodd;stroke-width:1pt;fill-opacity:1"
     d="M 57.683947,20.915123 C 57.367297,14.458532 51.605905,9.457998 44.823742,9.753191 C 38.041303,10.048396 32.793892,15.528088 33.110541,21.984679 C 33.427194,28.441269 48.567826,23.834201 45.971023,33.146599 C 52.753189,32.851405 58.000599,27.371713 57.683947,20.915123 z "
     id="path562"
     sodipodi:nodetypes="ccccc" />
  <path
     style="font-size:12px;fill:#18beff;fill-opacity:1;fill-rule:evenodd;stroke-width:1pt"
     d="M 53.111596,22.82342 C 52.814736,16.770384 47.532937,12.077121 41.321827,12.347459 C 35.110582,12.617803 30.310648,17.749872 30.607506,23.802909 C 30.904363,29.855943 36.186166,34.549204 42.397408,34.278862 C 48.608518,34.008523 53.408455,28.876455 53.111596,22.82342 z "
     id="path561" />
</svg>
