<?xml version="1.0" encoding="UTF-8" standalone="no"?>
<!-- Created with Inkscape (http://www.inkscape.org/) -->

<svg
   xmlns:dc="http://purl.org/dc/elements/1.1/"
   xmlns:cc="http://creativecommons.org/ns#"
   xmlns:rdf="http://www.w3.org/1999/02/22-rdf-syntax-ns#"
   xmlns:svg="http://www.w3.org/2000/svg"
   xmlns="http://www.w3.org/2000/svg"
   xmlns:xlink="http://www.w3.org/1999/xlink"
   xmlns:sodipodi="http://sodipodi.sourceforge.net/DTD/sodipodi-0.dtd"
   xmlns:inkscape="http://www.inkscape.org/namespaces/inkscape"
   width="90"
   height="90"
   id="svg2"
   sodipodi:version="0.32"
   inkscape:version="0.92.4 (5da689c313, 2019-01-14)"
   version="1.0"
   sodipodi:docname="main_race.svg"
   inkscape:output_extension="org.inkscape.output.svg.inkscape">
  <defs
     id="defs4">
    <linearGradient
       id="linearGradient3394"
       inkscape:collect="always">
      <stop
         id="stop3396"
         offset="0"
         style="stop-color:#ffe6ba;stop-opacity:1" />
      <stop
         id="stop3398"
         offset="1"
         style="stop-color:#ff933d;stop-opacity:1" />
    </linearGradient>
    <linearGradient
       inkscape:collect="always"
       id="linearGradient3337">
      <stop
         style="stop-color:#b01911;stop-opacity:1"
         offset="0"
         id="stop3339" />
      <stop
         style="stop-color:#ed0000;stop-opacity:1"
         offset="1"
         id="stop3341" />
    </linearGradient>
    <linearGradient
       inkscape:collect="always"
       id="linearGradient3264">
      <stop
         style="stop-color:#ffbfbc;stop-opacity:1"
         offset="0"
         id="stop3266" />
      <stop
         style="stop-color:#ffbfbc;stop-opacity:0"
         offset="1"
         id="stop3268" />
    </linearGradient>
    <inkscape:perspective
       sodipodi:type="inkscape:persp3d"
       inkscape:vp_x="0 : 526.18109 : 1"
       inkscape:vp_y="0 : 1000 : 0"
       inkscape:vp_z="744.09448 : 526.18109 : 1"
       inkscape:persp3d-origin="372.04724 : 350.78739 : 1"
       id="perspective10" />
    <linearGradient
       inkscape:collect="always"
       xlink:href="#linearGradient3337"
       id="linearGradient3448"
       gradientUnits="userSpaceOnUse"
       x1="46.365261"
       y1="82.203156"
       x2="45.472404"
       y2="73.631721" />
    <linearGradient
       inkscape:collect="always"
       xlink:href="#linearGradient3337"
       id="linearGradient3450"
       gradientUnits="userSpaceOnUse"
       x1="47.527901"
       y1="73.50412"
       x2="47.527901"
       y2="62.648685" />
    <linearGradient
       inkscape:collect="always"
       xlink:href="#linearGradient3337"
       id="linearGradient3452"
       gradientUnits="userSpaceOnUse"
       x1="49.085773"
       y1="64.325935"
       x2="47.87254"
       y2="54.040073" />
    <linearGradient
       inkscape:collect="always"
       xlink:href="#linearGradient3337"
       id="linearGradient3454"
       gradientUnits="userSpaceOnUse"
       x1="51.513355"
       y1="54.467087"
       x2="49.046898"
       y2="46.967087" />
    <linearGradient
       inkscape:collect="always"
       xlink:href="#linearGradient3394"
       id="linearGradient3456"
       gradientUnits="userSpaceOnUse"
       gradientTransform="translate(-0.3788072)"
       x1="42.151401"
       y1="37.244861"
       x2="56.301832"
       y2="37.244861" />
    <linearGradient
       inkscape:collect="always"
       xlink:href="#linearGradient3264"
       id="linearGradient3458"
       gradientUnits="userSpaceOnUse"
       gradientTransform="translate(-0.3788072)"
       x1="51.162693"
       y1="6.3147435"
       x2="52.77232"
       y2="14.082601" />
    <linearGradient
       inkscape:collect="always"
       xlink:href="#linearGradient3264"
       id="linearGradient3506"
       gradientUnits="userSpaceOnUse"
       gradientTransform="matrix(0.86062243,0,0,0.86062243,1.2830844,7.7199571)"
       x1="51.162693"
       y1="6.3147435"
       x2="52.77232"
       y2="14.082601" />
    <linearGradient
       inkscape:collect="always"
       xlink:href="#linearGradient3394"
       id="linearGradient3510"
       gradientUnits="userSpaceOnUse"
       gradientTransform="matrix(0.86062243,0,0,0.86062243,1.2830844,7.7199571)"
       x1="42.151401"
       y1="37.244861"
       x2="56.301832"
       y2="37.244861" />
    <linearGradient
       inkscape:collect="always"
       xlink:href="#linearGradient3337"
       id="linearGradient3513"
       gradientUnits="userSpaceOnUse"
       x1="51.513355"
       y1="54.467087"
       x2="49.046898"
       y2="46.967087"
       gradientTransform="matrix(0.86062243,0,0,0.86062243,1.6090945,7.7199571)" />
    <linearGradient
       inkscape:collect="always"
       xlink:href="#linearGradient3337"
       id="linearGradient3516"
       gradientUnits="userSpaceOnUse"
       x1="49.085773"
       y1="64.325935"
       x2="47.87254"
       y2="54.040073"
       gradientTransform="matrix(0.86062243,0,0,0.86062243,1.6090945,7.7199571)" />
    <linearGradient
       inkscape:collect="always"
       xlink:href="#linearGradient3337"
       id="linearGradient3519"
       gradientUnits="userSpaceOnUse"
       x1="47.527901"
       y1="73.50412"
       x2="47.527901"
       y2="62.648685"
       gradientTransform="matrix(0.86062243,0,0,0.86062243,1.6090945,7.7199571)" />
    <linearGradient
       inkscape:collect="always"
       xlink:href="#linearGradient3337"
       id="linearGradient3522"
       gradientUnits="userSpaceOnUse"
       x1="46.365261"
       y1="82.203156"
       x2="45.472404"
       y2="73.631721"
       gradientTransform="matrix(0.86062243,0,0,0.86062243,1.6090945,7.7199571)" />
    <linearGradient
       gradientTransform="matrix(1.036821,-1.811349e-6,3.827296e-7,0.964487,2.057071e-6,1.075978e-6)"
       spreadMethod="pad"
       gradientUnits="userSpaceOnUse"
       y2="21.4794312"
       x2="68.3603058"
       y1="32.8688049"
       x1="28.2520447"
       id="linearGradient587"
       xlink:href="#linearGradient584" />
    <linearGradient
       id="linearGradient584">
      <stop
         id="stop585"
         offset="0.000000"
         style="stop-color:#ffffff;stop-opacity:0;" />
      <stop
         id="stop586"
         offset="1.000000"
         style="stop-color:#ffffff;stop-opacity:1;" />
    </linearGradient>
    <inkscape:perspective
       id="perspective3551"
       inkscape:persp3d-origin="45 : 30 : 1"
       inkscape:vp_z="90 : 45 : 1"
       inkscape:vp_y="0 : 1000 : 0"
       inkscape:vp_x="0 : 45 : 1"
       sodipodi:type="inkscape:persp3d" />
    <inkscape:perspective
       id="perspective3629"
       inkscape:persp3d-origin="0.5 : 0.33333333 : 1"
       inkscape:vp_z="1 : 0.5 : 1"
       inkscape:vp_y="0 : 1000 : 0"
       inkscape:vp_x="0 : 0.5 : 1"
       sodipodi:type="inkscape:persp3d" />
  </defs>
  <sodipodi:namedview
     id="base"
     pagecolor="#ffffff"
     bordercolor="#666666"
     borderopacity="1.0"
     gridtolerance="10000"
     guidetolerance="10"
     objecttolerance="10"
     inkscape:pageopacity="0.0"
     inkscape:pageshadow="2"
     inkscape:zoom="2.8"
     inkscape:cx="34.632473"
     inkscape:cy="54.657997"
     inkscape:document-units="px"
     inkscape:current-layer="layer1"
     showgrid="false"
     inkscape:window-width="926"
     inkscape:window-height="724"
     inkscape:window-x="1478"
     inkscape:window-y="892"
     inkscape:window-maximized="0" />
  <metadata
     id="metadata7">
    <rdf:RDF>
      <cc:Work
         rdf:about="">
        <dc:format>image/svg+xml</dc:format>
        <dc:type
           rdf:resource="http://purl.org/dc/dcmitype/StillImage" />
        <cc:license
           rdf:resource="" />
        <dc:title></dc:title>
      </cc:Work>
    </rdf:RDF>
  </metadata>
  <g
     inkscape:label="Layer 1"
     inkscape:groupmode="layer"
     id="layer1">
    <path
       style="color:#000000;display:inline;overflow:visible;visibility:visible;opacity:1;fill:#000000;fill-opacity:0.29411765;fill-rule:nonzero;stroke:none;stroke-width:6.09243298;marker:none;marker-start:none;marker-mid:none;marker-end:none;enable-background:accumulate"
       d="M 51.933375,82.946947 C 65.925858,81.818522 69.488763,77.508895 75.630321,70.985632 82.403334,63.791668 78.338542,49.09417 59.155302,51.351022 47.26746,52.749592 17.854913,61.732539 51.933375,82.946947 Z"
       id="path3527"
       sodipodi:nodetypes="cssc"
       inkscape:connector-curvature="0" />
    <g
       id="g3437"
       transform="matrix(0.86062245,0,0,0.86062245,1.6090944,7.7199572)">
      <path
         d="m 49.835938,0.38867188 c -0.948997,-0.0112034 -1.827629,0.0393841 -2.638672,0.1171875 l 0.0059,-0.001953 c 0.201217,-0.0190861 0.0084,-0.0276238 -0.591797,0.0449219 a 4.7987043,4.7987043 0 0 0 -0.0098,0.001953 c -0.533995,0.0656155 -1.032863,0.15059618 -1.496093,0.2421875 -0.481487,0.0947261 -0.537846,0.11560943 -0.166016,0.0390625 a 4.7987043,4.7987043 0 0 0 -0.0059,0 C 44.108118,1.0028059 43.292247,1.221756 42.486328,1.5097656 42.007707,1.6800234 41.760854,1.80403 41.740234,1.8125 a 4.7987043,4.7987043 0 0 0 -0.01367,0.00391 c 0.26905,-0.1113571 0.03101,-0.066078 -0.701171,0.2773438 -1.10038,0.5171236 -1.313935,0.6457033 -0.126953,0.078125 a 4.7987043,4.7987043 0 0 0 -0.01172,0.00586 c -0.606555,0.2921873 -0.708247,0.3729762 -0.31836,0.1738281 -0.649392,0.3302413 -1.348469,0.7244715 -2.0625,1.2480469 -5.470258,4.0111611 -6.755845,10.7251596 -5.892578,16.2382816 0.676771,4.322091 2.421072,8.467186 5.751953,11.171875 0.235108,1.493063 0.197788,4.898986 -0.113281,8.287109 -1.980346,0.577604 -3.922194,1.356623 -5.724609,2.53125 -1.474613,0.960999 -2.909848,2.0917 -3.97461,4.033203 -0.287073,0.523455 -0.304062,1.286297 -0.443359,1.962891 -2.629943,1.042001 -4.754971,3.191182 -5.357422,5.564453 -0.121108,0.47709 -0.139101,0.937199 -0.189453,1.402344 -2.291779,0.934431 -4.11942,2.784051 -4.919922,4.742187 -0.566651,1.386105 -0.836599,2.86446 -0.746094,4.347656 -2.957705,1.720637 -4.896163,4.755509 -5.107422,7.65625 -0.278681,3.826518 1.448829,7.805012 5.597657,9.384766 5.762348,2.194141 14.965144,8.881617 38.003906,7.302734 a 4.7987043,4.7987043 0 0 0 0.0039,0 c 7.103533,-0.492435 13.000309,-2.482707 17.335938,-4.958984 2.167814,-1.238138 3.950942,-2.58394 5.363281,-4.105469 1.412339,-1.521529 2.767578,-3.171327 2.767578,-6.066406 10e-7,-0.861448 0.303638,-2.612138 0,-4.9375 -0.151819,-1.162681 -0.480677,-2.666585 -1.714844,-4.125 -0.303702,-0.358885 -0.775655,-0.562337 -1.171875,-0.847656 -0.069,-1.738472 -0.531001,-3.4258 -1.535156,-4.779297 -0.866863,-1.168442 -2.077795,-1.976694 -3.394531,-2.572266 -0.435879,-2.078161 -1.697767,-3.794187 -3.074219,-4.865234 -0.677642,-0.527289 -1.37116,-0.944277 -2.072265,-1.277344 -0.0735,-1.155823 -0.271045,-2.274715 -0.732422,-3.21875 -1.440549,-2.947542 -3.871486,-4.814163 -6.59375,-5.976562 -0.586295,-0.250347 -1.25034,-0.322779 -1.859375,-0.519532 0.02651,-3.35396 0.366205,-6.915246 0.523437,-7.46289 a 4.7987043,4.7987043 0 0 0 0.07227,-0.304688 c 3.620279,-2.438192 6.041649,-6.190645 7.203125,-10.279297 1.392435,-4.901679 1.10316,-10.629348 -2.337891,-15.1914059 a 4.7987043,4.7987043 0 0 0 -0.002,-0.00391 c -0.796751,-1.0543627 -0.805383,-1.0300671 -0.08594,-0.09375 l -0.002,-0.00195 C 63.775595,6.2355322 63.409642,5.7913759 62.966797,5.3378906 l -0.0059,-0.00586 C 62.876052,5.244983 62.756647,5.1222742 62.59375,4.9667969 a 4.7987043,4.7987043 0 0 0 -0.0078,-0.00781 C 62.25268,4.6422738 61.911,4.3501095 61.566406,4.078125 l 0.0078,0.00391 C 61.3711,3.9211135 61.307573,3.8796109 61.390625,3.9433594 A 4.7987043,4.7987043 0 0 0 61.382812,3.9375 C 61.051963,3.6846928 60.601809,3.3424169 60.011719,2.9863281 l -0.002,-0.00195 C 59.331157,2.5750683 59.170551,2.5310921 59.570312,2.7558594 a 4.7987043,4.7987043 0 0 0 -0.002,-0.00195 C 58.598088,2.2089954 57.524036,1.7333461 56.353516,1.3632812 a 4.7987043,4.7987043 0 0 0 -0.0059,-0.00195 c -0.06759,-0.02129 -0.0825,-0.00518 -0.146484,-0.023437 C 55.766548,1.2015902 55.151615,0.99520995 54.322266,0.828125 a 4.7987043,4.7987043 0 0 0 -0.0039,-0.001953 c -0.293954,-0.0589547 -0.520916,-0.0941734 -0.68164,-0.12109376 a 4.7987043,4.7987043 0 0 0 -0.002,0 C 53.170983,0.6276022 52.682459,0.55955965 52.175781,0.5078125 a 4.7987043,4.7987043 0 0 0 -0.0098,0 C 52.113375,0.50252993 51.983058,0.48573984 51.783203,0.46875 h -0.002 C 51.067499,0.40779582 50.421427,0.3954249 49.837891,0.38867188 Z"
         id="path3390"
         style="color:#000000;display:inline;overflow:visible;visibility:visible;opacity:1;fill:#593a28;fill-opacity:1;fill-rule:nonzero;stroke:none;stroke-width:7;marker:none;marker-start:none;marker-mid:none;marker-end:none;enable-background:accumulate"
         inkscape:original="M 49.78125 5.1875 C 49.025517 5.1785086 48.33486 5.2161509 47.65625 5.28125 C 47.50381 5.2957094 47.336167 5.2945293 47.1875 5.3125 C 46.789379 5.3614197 46.402448 5.4265191 46.03125 5.5 C 45.988044 5.5085002 45.949097 5.5224293 45.90625 5.53125 C 45.26338 5.6642471 44.657273 5.8294455 44.09375 6.03125 C 43.911574 6.0960546 43.736599 6.1784844 43.5625 6.25 C 43.398741 6.3177784 43.219205 6.363999 43.0625 6.4375 C 43.029808 6.4527407 43.001136 6.484514 42.96875 6.5 C 42.891732 6.5371008 42.825302 6.586537 42.75 6.625 C 42.244029 6.8820878 41.773514 7.153618 41.34375 7.46875 C 33.989701 12.861233 37.41398 26.072164 43.28125 28.5 C 46.903379 29.464371 52.742229 29.716747 55.125 29.1875 C 61.61372 26.303624 64.953856 15.736962 60.34375 9.625 C 60.326341 9.6019622 60.298882 9.5854094 60.28125 9.5625 C 60.048931 9.2601972 59.803686 8.9660711 59.53125 8.6875 C 59.450125 8.6043355 59.365972 8.5183633 59.28125 8.4375 C 59.063571 8.2306293 58.835675 8.0346988 58.59375 7.84375 C 58.553361 7.8117524 58.509823 7.7815266 58.46875 7.75 C 58.169932 7.5216683 57.866803 7.2961073 57.53125 7.09375 C 57.435127 7.0356958 57.31795 6.9932756 57.21875 6.9375 C 56.524447 6.547575 55.755084 6.2058623 54.90625 5.9375 C 54.887723 5.9316638 54.862353 5.9432734 54.84375 5.9375 C 54.37206 5.790638 53.895884 5.6361899 53.375 5.53125 C 53.204599 5.4970748 53.019576 5.4669498 52.84375 5.4375 C 52.474994 5.3758985 52.080091 5.3213454 51.6875 5.28125 C 51.588266 5.2712917 51.475793 5.2585459 51.375 5.25 C 50.868542 5.2066867 50.327042 5.1938083 49.78125 5.1875 z M 43.09375 30.125 C 43.570443 32.995258 43.573591 38.446006 42.6875 43.25 C 42.616205 43.255739 42.539654 43.243997 42.46875 43.25 C 38.049056 43.624199 30.583637 47.313574 32.8125 50.71875 C 33.048061 51.078629 37.640223 57.219086 57.21875 55.03125 C 41.727333 60.754337 31.767703 51.91412 31.125 51.96875 C 26.51293 52.360779 26.738007 56.555465 28.34375 57.84375 C 29.473456 58.750112 41.687443 67.265333 58.875 63.25 L 57.9375 63.59375 C 43.309158 70.042073 26.611904 59.087869 26.3125 59.03125 C 26.062931 58.984056 25.82486 58.943518 25.59375 58.9375 C 22.127093 58.847228 20.764443 63.196258 22.40625 65.71875 C 22.987108 66.611189 38.470924 77.254754 60.03125 72.09375 C 42.552271 80.139571 22.153032 67.133754 20.96875 67.375 C 15.054659 68.579741 15.789017 75.179153 19.09375 76.4375 C 26.071198 79.094317 32.932302 84.954117 55.0625 83.4375 C 67.831846 82.552295 76.0625 76.201077 76.0625 73.09375 C 76.062503 70.374837 76.909096 66.522637 73.84375 66.4375 C 73.405843 66.425338 72.892931 66.500884 72.28125 66.65625 C 75.143049 62.555823 71.733111 58.612798 67.78125 59.9375 C 70.223831 55.101155 65.234105 53.056838 62.03125 53.625 C 62.047114 53.607762 62.046948 53.579765 62.0625 53.5625 C 65.03715 50.260048 62.323905 46.458985 58.6875 44.90625 C 57.323666 44.323897 55.695343 43.890114 53.9375 43.59375 C 53.383513 38.966433 54.028868 33.263841 54.625 31.1875 C 51.549754 31.833414 45.332103 31.047226 43.09375 30.125 z "
         inkscape:radius="4.7982244"
         sodipodi:type="inkscape:offset" />
      <path
         sodipodi:nodetypes="cccsscsc"
         id="path3322"
         d="m 73.84375,66.4375 c -0.437907,-0.01216 -0.950819,0.06338 -1.5625,0.21875 L 61.25,71.53125 C 43.520495,80.76726 22.180155,67.128229 20.96875,67.375 c -5.914091,1.204741 -5.179733,7.804153 -1.875,9.0625 6.977448,2.656817 13.838552,8.516617 35.96875,7 12.769346,-0.885205 21,-7.236423 21,-10.34375 3e-6,-2.718913 0.846596,-6.571113 -2.21875,-6.65625 z"
         style="color:#000000;display:inline;overflow:visible;visibility:visible;opacity:1;fill:url(#linearGradient3448);fill-opacity:1;fill-rule:nonzero;stroke:none;stroke-width:7;marker:none;marker-start:none;marker-mid:none;marker-end:none;enable-background:accumulate"
         inkscape:connector-curvature="0" />
      <path
         sodipodi:nodetypes="csccccscc"
         id="path3318"
         d="m 25.59375,58.9375 c -3.466657,-0.09027 -4.829307,4.258758 -3.1875,6.78125 0.599595,0.921227 17.081262,12.238183 39.732143,5.830357 L 72.28125,66.65625 c 2.891582,-4.143101 -0.621272,-8.137585 -4.625,-6.6875 l -9.71875,3.625 C 43.309158,70.042073 26.611904,59.087869 26.3125,59.03125 26.062931,58.98406 25.82486,58.94352 25.59375,58.9375 Z"
         style="color:#000000;display:inline;overflow:visible;visibility:visible;opacity:1;fill:url(#linearGradient3450);fill-opacity:1;fill-rule:nonzero;stroke:none;stroke-width:7;marker:none;marker-start:none;marker-mid:none;marker-end:none;enable-background:accumulate"
         inkscape:connector-curvature="0" />
      <path
         sodipodi:nodetypes="ccccccsc"
         id="path3320"
         d="M 67.678796,60.150661 C 70.390538,55.15427 65.282798,53.0482 62.03125,53.625 c 0.01586,-0.01724 0.0157,-0.04523 0.03125,-0.0625 -1.449522,0.384309 -2.896615,0.78721 -4.3125,1.28125 -15.795101,6.127568 -25.97497,-2.930253 -26.625,-2.875 v 0 c -4.61207,0.392029 -4.386993,4.586715 -2.78125,5.875 1.144169,0.917965 13.652427,9.647742 31.188135,5.252538"
         style="color:#000000;display:inline;overflow:visible;visibility:visible;opacity:1;fill:url(#linearGradient3452);fill-opacity:1;fill-rule:nonzero;stroke:none;stroke-width:7;marker:none;marker-start:none;marker-mid:none;marker-end:none;enable-background:accumulate"
         inkscape:connector-curvature="0" />
      <path
         sodipodi:nodetypes="cssccsc"
         id="path3307"
         d="m 46.71875,43.0625 c -1.452006,0.0053 -2.887857,0.07217 -4.25,0.1875 -4.419694,0.374199 -11.885113,4.063574 -9.65625,7.46875 0.237119,0.362259 4.875891,6.596539 24.784105,4.282519 L 62.0625,53.5625 c 2.97465,-3.302452 0.261405,-7.103515 -3.375,-8.65625 -3.126213,-1.334883 -7.612733,-1.859674 -11.96875,-1.84375 z"
         style="color:#000000;display:inline;overflow:visible;visibility:visible;opacity:1;fill:url(#linearGradient3454);fill-opacity:1;fill-rule:nonzero;stroke:none;stroke-width:7;marker:none;marker-start:none;marker-mid:none;marker-end:none;enable-background:accumulate"
         inkscape:connector-curvature="0" />
      <path
         sodipodi:nodetypes="cccccc"
         id="path2481"
         d="m 41.772594,46.963054 c 1.776358,-5.338305 2.3211,-13.830365 1.714953,-17.480091 2.238355,0.922225 8.062138,1.589505 11.137384,0.943591 -0.818236,2.849937 -1.738266,13.303491 0.493426,17.648646 -0.724171,2.70604 -13.314463,2.935441 -13.345763,-1.112146 z"
         style="color:#000000;display:inline;overflow:visible;visibility:visible;opacity:1;fill:url(#linearGradient3456);fill-opacity:1;fill-rule:nonzero;stroke:none;stroke-width:7;marker:none;marker-start:none;marker-mid:none;marker-end:none;enable-background:accumulate"
         inkscape:connector-curvature="0" />
      <path
         sodipodi:nodetypes="cscc"
         id="path2485"
         d="M 55.122563,29.185633 C 64.368532,25.076313 67.26056,5.3797148 49.795229,5.1778496 32.311151,4.9698308 35.835902,25.411405 43.284043,28.493395 c 3.622128,0.964371 9.455749,1.221485 11.83852,0.692238 z"
         style="color:#000000;display:inline;overflow:visible;visibility:visible;opacity:1;fill:#ed0000;fill-opacity:1;fill-rule:nonzero;stroke:none;stroke-width:7;marker:none;marker-start:none;marker-mid:none;marker-end:none;enable-background:accumulate"
         inkscape:connector-curvature="0" />
      <path
         id="path2487"
         d="m 49.808693,5.1875 c -3.711002,-0.044152 -6.487283,0.8283051 -8.46875,2.28125 -0.845395,2.869716 3.195689,4.497895 8.5625,4.4375 C 53.052478,11.8708 57.995928,11.74158 59.964943,10 60.107954,9.873508 60.21554,9.7466894 60.339943,9.625 58.380154,7.0315977 55.012397,5.2476447 49.808693,5.1875 Z"
         style="color:#000000;display:inline;overflow:visible;visibility:visible;opacity:1;fill:url(#linearGradient3458);fill-opacity:1;fill-rule:nonzero;stroke:none;stroke-width:7;marker:none;marker-start:none;marker-mid:none;marker-end:none;enable-background:accumulate"
         inkscape:connector-curvature="0" />
      <path
         id="path2492"
         d="m 45.178572,8.6607141 c -3.75,0.2678571 -5.267857,4.1964289 -5.267857,6.0714289 0,1.875 0.178571,1.964285 0.982143,0.267857 0.803571,-1.696429 1.875,-4.285714 4.464285,-5.2678574 2.589286,-0.9821428 0.714286,-1.25 -0.178571,-1.0714285 z"
         style="color:#000000;display:inline;overflow:visible;visibility:visible;opacity:1;fill:#ffffff;fill-opacity:1;fill-rule:nonzero;stroke:none;stroke-width:7;marker:none;marker-start:none;marker-mid:none;marker-end:none;enable-background:accumulate"
         inkscape:connector-curvature="0" />
    </g>
    <path
       d="m 49.835938,0.38867188 c -0.948997,-0.0112034 -1.827629,0.0393841 -2.638672,0.1171875 l 0.0059,-0.001953 c 0.201217,-0.0190861 0.0084,-0.0276238 -0.591797,0.0449219 a 4.7987043,4.7987043 0 0 0 -0.0098,0.001953 c -0.533995,0.0656155 -1.032863,0.15059618 -1.496093,0.2421875 -0.481487,0.0947261 -0.537846,0.11560943 -0.166016,0.0390625 a 4.7987043,4.7987043 0 0 0 -0.0059,0 C 44.108118,1.0028059 43.292247,1.221756 42.486328,1.5097656 42.007707,1.6800234 41.760854,1.80403 41.740234,1.8125 a 4.7987043,4.7987043 0 0 0 -0.01367,0.00391 c 0.26905,-0.1113571 0.03101,-0.066078 -0.701171,0.2773438 -1.10038,0.5171236 -1.313935,0.6457033 -0.126953,0.078125 a 4.7987043,4.7987043 0 0 0 -0.01172,0.00586 c -0.606555,0.2921873 -0.708247,0.3729762 -0.31836,0.1738281 -0.649392,0.3302413 -1.348469,0.7244715 -2.0625,1.2480469 -5.470258,4.0111611 -6.755845,10.7251596 -5.892578,16.2382816 0.676771,4.322091 2.421072,8.467186 5.751953,11.171875 0.235108,1.493063 0.197788,4.898986 -0.113281,8.287109 -1.980346,0.577604 -3.922194,1.356623 -5.724609,2.53125 -1.474613,0.960999 -2.909848,2.0917 -3.97461,4.033203 -0.287073,0.523455 -0.304062,1.286297 -0.443359,1.962891 -2.629943,1.042001 -4.754971,3.191182 -5.357422,5.564453 -0.121108,0.47709 -0.139101,0.937199 -0.189453,1.402344 -2.291779,0.934431 -4.11942,2.784051 -4.919922,4.742187 -0.566651,1.386105 -0.836599,2.86446 -0.746094,4.347656 -2.957705,1.720637 -4.896163,4.755509 -5.107422,7.65625 -0.278681,3.826518 1.448829,7.805012 5.597657,9.384766 5.762348,2.194141 14.965144,8.881617 38.003906,7.302734 a 4.7987043,4.7987043 0 0 0 0.0039,0 c 7.103533,-0.492435 13.000309,-2.482707 17.335938,-4.958984 2.167814,-1.238138 3.950942,-2.58394 5.363281,-4.105469 1.412339,-1.521529 2.767578,-3.171327 2.767578,-6.066406 10e-7,-0.861448 0.303638,-2.612138 0,-4.9375 -0.151819,-1.162681 -0.480677,-2.666585 -1.714844,-4.125 -0.303702,-0.358885 -0.775655,-0.562337 -1.171875,-0.847656 -0.069,-1.738472 -0.531001,-3.4258 -1.535156,-4.779297 -0.866863,-1.168442 -2.077795,-1.976694 -3.394531,-2.572266 -0.435879,-2.078161 -1.697767,-3.794187 -3.074219,-4.865234 -0.677642,-0.527289 -1.37116,-0.944277 -2.072265,-1.277344 -0.0735,-1.155823 -0.271045,-2.274715 -0.732422,-3.21875 -1.440549,-2.947542 -3.871486,-4.814163 -6.59375,-5.976562 -0.586295,-0.250347 -1.25034,-0.322779 -1.859375,-0.519532 0.02651,-3.35396 0.366205,-6.915246 0.523437,-7.46289 a 4.7987043,4.7987043 0 0 0 0.07227,-0.304688 c 3.620279,-2.438192 6.041649,-6.190645 7.203125,-10.279297 1.392435,-4.901679 1.10316,-10.629348 -2.337891,-15.1914059 a 4.7987043,4.7987043 0 0 0 -0.002,-0.00391 c -0.796751,-1.0543627 -0.805383,-1.0300671 -0.08594,-0.09375 l -0.002,-0.00195 C 63.775595,6.2355322 63.409642,5.7913759 62.966797,5.3378906 l -0.0059,-0.00586 C 62.876052,5.244983 62.756647,5.1222742 62.59375,4.9667969 a 4.7987043,4.7987043 0 0 0 -0.0078,-0.00781 C 62.25268,4.6422738 61.911,4.3501095 61.566406,4.078125 l 0.0078,0.00391 C 61.3711,3.9211135 61.307573,3.8796109 61.390625,3.9433594 A 4.7987043,4.7987043 0 0 0 61.382812,3.9375 C 61.051963,3.6846928 60.601809,3.3424169 60.011719,2.9863281 l -0.002,-0.00195 C 59.331157,2.5750683 59.170551,2.5310921 59.570312,2.7558594 a 4.7987043,4.7987043 0 0 0 -0.002,-0.00195 C 58.598088,2.2089954 57.524036,1.7333461 56.353516,1.3632812 a 4.7987043,4.7987043 0 0 0 -0.0059,-0.00195 c -0.06759,-0.02129 -0.0825,-0.00518 -0.146484,-0.023437 C 55.766548,1.2015902 55.151615,0.99520995 54.322266,0.828125 a 4.7987043,4.7987043 0 0 0 -0.0039,-0.001953 c -0.293954,-0.0589547 -0.520916,-0.0941734 -0.68164,-0.12109376 a 4.7987043,4.7987043 0 0 0 -0.002,0 C 53.170983,0.6276022 52.682459,0.55955965 52.175781,0.5078125 a 4.7987043,4.7987043 0 0 0 -0.0098,0 C 52.113375,0.50252993 51.983058,0.48573984 51.783203,0.46875 h -0.002 C 51.067499,0.40779582 50.421427,0.3954249 49.837891,0.38867188 Z"
       id="path3462"
       style="color:#000000;display:inline;overflow:visible;visibility:visible;fill:#000000;fill-opacity:1;fill-rule:nonzero;stroke:none;stroke-width:7;marker:none;marker-start:none;marker-mid:none;marker-end:none;enable-background:accumulate"
       inkscape:original="M 49.78125 5.1875 C 49.025517 5.1785086 48.33486 5.2161509 47.65625 5.28125 C 47.50381 5.2957094 47.336167 5.2945293 47.1875 5.3125 C 46.789379 5.3614197 46.402448 5.4265191 46.03125 5.5 C 45.988044 5.5085002 45.949097 5.5224293 45.90625 5.53125 C 45.26338 5.6642471 44.657273 5.8294455 44.09375 6.03125 C 43.911574 6.0960546 43.736599 6.1784844 43.5625 6.25 C 43.398741 6.3177784 43.219205 6.363999 43.0625 6.4375 C 43.029808 6.4527407 43.001136 6.484514 42.96875 6.5 C 42.891732 6.5371008 42.825302 6.586537 42.75 6.625 C 42.244029 6.8820878 41.773514 7.153618 41.34375 7.46875 C 33.989701 12.861233 37.41398 26.072164 43.28125 28.5 C 46.903379 29.464371 52.742229 29.716747 55.125 29.1875 C 61.61372 26.303624 64.953856 15.736962 60.34375 9.625 C 60.326341 9.6019622 60.298882 9.5854094 60.28125 9.5625 C 60.048931 9.2601972 59.803686 8.9660711 59.53125 8.6875 C 59.450125 8.6043355 59.365972 8.5183633 59.28125 8.4375 C 59.063571 8.2306293 58.835675 8.0346988 58.59375 7.84375 C 58.553361 7.8117524 58.509823 7.7815266 58.46875 7.75 C 58.169932 7.5216683 57.866803 7.2961073 57.53125 7.09375 C 57.435127 7.0356958 57.31795 6.9932756 57.21875 6.9375 C 56.524447 6.547575 55.755084 6.2058623 54.90625 5.9375 C 54.887723 5.9316638 54.862353 5.9432734 54.84375 5.9375 C 54.37206 5.790638 53.895884 5.6361899 53.375 5.53125 C 53.204599 5.4970748 53.019576 5.4669498 52.84375 5.4375 C 52.474994 5.3758985 52.080091 5.3213454 51.6875 5.28125 C 51.588266 5.2712917 51.475793 5.2585459 51.375 5.25 C 50.868542 5.2066867 50.327042 5.1938083 49.78125 5.1875 z M 43.09375 30.125 C 43.570443 32.995258 43.573591 38.446006 42.6875 43.25 C 42.616205 43.255739 42.539654 43.243997 42.46875 43.25 C 38.049056 43.624199 30.583637 47.313574 32.8125 50.71875 C 33.048061 51.078629 37.640223 57.219086 57.21875 55.03125 C 41.727333 60.754337 31.767703 51.91412 31.125 51.96875 C 26.51293 52.360779 26.738007 56.555465 28.34375 57.84375 C 29.473456 58.750112 41.687443 67.265333 58.875 63.25 L 57.9375 63.59375 C 43.309158 70.042073 26.611904 59.087869 26.3125 59.03125 C 26.062931 58.984056 25.82486 58.943518 25.59375 58.9375 C 22.127093 58.847228 20.764443 63.196258 22.40625 65.71875 C 22.987108 66.611189 38.470924 77.254754 60.03125 72.09375 C 42.552271 80.139571 22.153032 67.133754 20.96875 67.375 C 15.054659 68.579741 15.789017 75.179153 19.09375 76.4375 C 26.071198 79.094317 32.932302 84.954117 55.0625 83.4375 C 67.831846 82.552295 76.0625 76.201077 76.0625 73.09375 C 76.062503 70.374837 76.909096 66.522637 73.84375 66.4375 C 73.405843 66.425338 72.892931 66.500884 72.28125 66.65625 C 75.143049 62.555823 71.733111 58.612798 67.78125 59.9375 C 70.223831 55.101155 65.234105 53.056838 62.03125 53.625 C 62.047114 53.607762 62.046948 53.579765 62.0625 53.5625 C 65.03715 50.260048 62.323905 46.458985 58.6875 44.90625 C 57.323666 44.323897 55.695343 43.890114 53.9375 43.59375 C 53.383513 38.966433 54.028868 33.263841 54.625 31.1875 C 51.549754 31.833414 45.332103 31.047226 43.09375 30.125 z "
       inkscape:radius="4.7982244"
       sodipodi:type="inkscape:offset"
       transform="matrix(0.86062245,0,0,0.86062245,1.6090944,7.7199572)" />
    <path
       sodipodi:nodetypes="cccsscsc"
       id="path3464"
       d="m 65.160684,64.897559 c -0.376874,-0.01046 -0.818297,0.05455 -1.344723,0.188263 l -9.493742,4.195534 c -15.25841,7.948717 -33.624385,-3.789339 -34.666947,-3.576963 -5.089801,1.036828 -4.457795,6.716429 -1.613668,7.799391 6.00495,2.286517 11.909769,7.329592 30.955515,6.024357 10.989586,-0.761827 18.07307,-6.227828 18.07307,-8.902064 2e-6,-2.339957 0.728599,-5.655246 -1.909505,-5.728518 z"
       style="color:#000000;display:inline;overflow:visible;visibility:visible;fill:url(#linearGradient3522);fill-opacity:1;fill-rule:nonzero;stroke:none;stroke-width:6.09243298;marker:none;marker-start:none;marker-mid:none;marker-end:none;enable-background:accumulate"
       inkscape:connector-curvature="0" />
    <path
       sodipodi:nodetypes="csccccscc"
       id="path3466"
       d="m 23.63565,58.442892 c -2.983483,-0.07769 -4.156209,3.665183 -2.743234,5.836096 0.516025,0.792828 14.700517,10.532454 34.194375,5.017736 l 8.72917,-4.210902 c 2.48856,-3.565646 -0.534682,-7.003388 -3.980378,-5.755413 l -8.364177,3.119756 C 38.881928,67.999736 24.511897,58.572302 24.254223,58.523576 24.039439,58.482964 23.83455,58.44807 23.63565,58.442887 Z"
       style="color:#000000;display:inline;overflow:visible;visibility:visible;fill:url(#linearGradient3519);fill-opacity:1;fill-rule:nonzero;stroke:none;stroke-width:6.09243298;marker:none;marker-start:none;marker-mid:none;marker-end:none;enable-background:accumulate"
       inkscape:connector-curvature="0" />
    <path
       sodipodi:nodetypes="ccccccsc"
       id="path3468"
       d="m 59.854986,59.486965 c 2.333785,-4.300007 -2.06205,-6.112537 -4.860405,-5.616129 0.01365,-0.01484 0.01351,-0.03893 0.02689,-0.05379 -1.247492,0.330745 -2.492893,0.677492 -3.711436,1.102674 -13.593613,5.273521 -22.354636,-2.521843 -22.914066,-2.474292 v 0 c -3.969252,0.33739 -3.775545,3.947432 -2.393608,5.056158 0.984699,0.790022 11.749586,8.303064 26.84121,4.520452"
       style="color:#000000;display:inline;overflow:visible;visibility:visible;fill:url(#linearGradient3516);fill-opacity:1;fill-rule:nonzero;stroke:none;stroke-width:6.09243298;marker:none;marker-start:none;marker-mid:none;marker-end:none;enable-background:accumulate"
       inkscape:connector-curvature="0" />
    <path
       sodipodi:nodetypes="cssccsc"
       id="path3470"
       d="m 41.816299,44.78051 c -1.249628,0.0046 -2.485354,0.06211 -3.657646,0.161367 -3.803687,0.322044 -10.228594,3.497203 -8.310383,6.427773 0.20407,0.31177 4.1963,5.67713 21.329756,3.685633 l 3.84345,-1.238238 c 2.56005,-2.842164 0.224971,-6.113443 -2.904602,-7.449762 -2.69049,-1.14883 -6.551688,-1.600478 -10.300575,-1.586773 z"
       style="color:#000000;display:inline;overflow:visible;visibility:visible;fill:url(#linearGradient3513);fill-opacity:1;fill-rule:nonzero;stroke:none;stroke-width:6.09243298;marker:none;marker-start:none;marker-mid:none;marker-end:none;enable-background:accumulate"
       inkscape:connector-curvature="0" />
    <path
       sodipodi:nodetypes="cccccc"
       id="path3472"
       d="m 37.559526,48.137414 c 1.528773,-4.594264 1.997592,-11.902722 1.475928,-15.043758 1.926378,0.793688 6.938456,1.367963 9.585082,0.812075 -0.704192,2.45272 -1.49599,11.449284 0.424654,15.188821 -0.623238,2.328879 -11.458726,2.526307 -11.485664,-0.957138 z"
       style="color:#000000;display:inline;overflow:visible;visibility:visible;fill:url(#linearGradient3510);fill-opacity:1;fill-rule:nonzero;stroke:none;stroke-width:6.09243298;marker:none;marker-start:none;marker-mid:none;marker-end:none;enable-background:accumulate"
       inkscape:connector-curvature="0" />
    <path
       sodipodi:nodetypes="cscc"
       id="path3474"
       d="M 49.04881,32.837768 C 57.006098,29.301194 59.495043,12.34986 44.463986,12.176131 29.416796,11.997105 32.450277,29.589583 38.860314,32.242012 c 3.117284,0.82996 8.137829,1.051239 10.188496,0.595757 z"
       style="color:#000000;display:inline;overflow:visible;visibility:visible;fill:#ed0000;fill-opacity:1;fill-rule:nonzero;stroke:none;stroke-width:6.09243298;marker:none;marker-start:none;marker-mid:none;marker-end:none;enable-background:accumulate"
       inkscape:connector-curvature="0" />
    <path
       id="path3476"
       d="m 44.475574,12.184436 c -3.193772,-0.038 -5.583101,0.712858 -7.288397,1.963295 -0.727564,2.469743 2.750283,3.87099 7.369081,3.819012 2.710991,-0.03051 6.965434,-0.141719 8.660011,-1.640562 0.123079,-0.108861 0.21567,-0.218005 0.322735,-0.322733 -1.686639,-2.23194 -4.585006,-3.76725 -9.06343,-3.819012 z"
       style="color:#000000;display:inline;overflow:visible;visibility:visible;fill:url(#linearGradient3506);fill-opacity:1;fill-rule:nonzero;stroke:none;stroke-width:6.09243298;marker:none;marker-start:none;marker-mid:none;marker-end:none;enable-background:accumulate"
       inkscape:connector-curvature="0" />
    <path
       id="path3478"
       d="m 40.490788,15.173561 c -3.227335,0.230524 -4.533636,3.61154 -4.533636,5.225208 0,1.613667 0.153682,1.690508 0.845254,0.230523 0.691571,-1.459984 1.613667,-3.688381 3.842064,-4.533635 2.228397,-0.845255 0.614731,-1.075777 -0.153682,-0.922096 z"
       style="color:#000000;display:inline;overflow:visible;visibility:visible;fill:#ffffff;fill-opacity:1;fill-rule:nonzero;stroke:none;stroke-width:6.09243298;marker:none;marker-start:none;marker-mid:none;marker-end:none;enable-background:accumulate"
       inkscape:connector-curvature="0" />
  </g>
</svg>
