<?xml version="1.0" encoding="UTF-8" standalone="no"?>
<!-- Created with Inkscape (http://www.inkscape.org/) -->

<svg
   xmlns:dc="http://purl.org/dc/elements/1.1/"
   xmlns:cc="http://creativecommons.org/ns#"
   xmlns:rdf="http://www.w3.org/1999/02/22-rdf-syntax-ns#"
   xmlns:svg="http://www.w3.org/2000/svg"
   xmlns="http://www.w3.org/2000/svg"
   xmlns:xlink="http://www.w3.org/1999/xlink"
   xmlns:sodipodi="http://sodipodi.sourceforge.net/DTD/sodipodi-0.dtd"
   xmlns:inkscape="http://www.inkscape.org/namespaces/inkscape"
   width="128"
   height="128"
   viewBox="0 0 128 128.00001"
   version="1.1"
   id="svg6294"
   inkscape:version="0.92.4 (5da689c313, 2019-01-14)"
   sodipodi:docname="mode_ftl.svg">
  <defs
     id="defs6288">
    <linearGradient
       inkscape:collect="always"
       id="linearGradient955">
      <stop
         style="stop-color:#808080;stop-opacity:1;"
         offset="0"
         id="stop951" />
      <stop
         style="stop-color:#808080;stop-opacity:0;"
         offset="1"
         id="stop953" />
    </linearGradient>
    <linearGradient
       inkscape:collect="always"
       xlink:href="#linearGradient955"
       id="linearGradient957"
       x1="23.837419"
       y1="1056.9399"
       x2="103.87898"
       y2="1056.9399"
       gradientUnits="userSpaceOnUse" />
  </defs>
  <sodipodi:namedview
     id="base"
     pagecolor="#ffffff"
     bordercolor="#666666"
     borderopacity="1.0"
     inkscape:pageopacity="0.0"
     inkscape:pageshadow="2"
     inkscape:zoom="4.3665114"
     inkscape:cx="62.516398"
     inkscape:cy="13.074952"
     inkscape:document-units="px"
     inkscape:current-layer="layer1"
     showgrid="false"
     units="px"
     inkscape:window-width="910"
     inkscape:window-height="1637"
     inkscape:window-x="2649"
     inkscape:window-y="0"
     inkscape:window-maximized="0" />
  <metadata
     id="metadata6291">
    <rdf:RDF>
      <cc:Work
         rdf:about="">
        <dc:format>image/svg+xml</dc:format>
        <dc:type
           rdf:resource="http://purl.org/dc/dcmitype/StillImage" />
        <dc:title></dc:title>
      </cc:Work>
    </rdf:RDF>
  </metadata>
  <g
     inkscape:label="Layer 1"
     inkscape:groupmode="layer"
     id="layer1"
     transform="translate(0,-994.51965)">
    <path
       sodipodi:type="inkscape:offset"
       inkscape:radius="3.7172387"
       inkscape:original="M 5706.5 1238.5195 L 5676 1239.0195 L 5668 1292.0195 L 5718.5 1291.5195 L 5706.5 1238.5195 z "
       style="fill:#000000;fill-opacity:0.39215686;stroke:none;stroke-width:1px;stroke-linecap:butt;stroke-linejoin:miter;stroke-opacity:1"
       id="path6600-9-3"
       d="m 5706.4395,1234.8027 -30.5,0.5 a 3.7176104,3.7176104 0 0 0 -3.6153,3.1621 l -8,53 a 3.7176104,3.7176104 0 0 0 3.7129,4.2715 l 50.5,-0.5 a 3.7176104,3.7176104 0 0 0 3.5879,-4.5371 l -12,-53 a 3.7176104,3.7176104 0 0 0 -3.6855,-2.8965 z"
       transform="matrix(1.5849829,0,0,1.5849829,-8950.7936,-941.57171)" />
    <path
       sodipodi:type="inkscape:offset"
       inkscape:radius="3.7172387"
       inkscape:original="M 5706.5 1238.5195 L 5676 1239.0195 L 5668 1292.0195 L 5718.5 1291.5195 L 5706.5 1238.5195 z "
       style="fill:#000000;stroke:none;stroke-width:1px;stroke-linecap:butt;stroke-linejoin:miter;stroke-opacity:1"
       id="path6600-9"
       d="m 5706.4395,1234.8027 -30.5,0.5 a 3.7176104,3.7176104 0 0 0 -3.6153,3.1621 l -8,53 a 3.7176104,3.7176104 0 0 0 3.7129,4.2715 l 50.5,-0.5 a 3.7176104,3.7176104 0 0 0 3.5879,-4.5371 l -12,-53 a 3.7176104,3.7176104 0 0 0 -3.6855,-2.8965 z"
       transform="matrix(1.5849829,0,0,1.5849829,-8959.8458,-948.49101)" />
    <path
       style="fill:#333333;stroke:none;stroke-width:1.58498287px;stroke-linecap:butt;stroke-linejoin:miter;stroke-opacity:1"
       d="m 23.837419,1099.3383 12.679843,-84.0043 48.341945,-0.7923 19.019773,84.0041 z"
       id="path6600"
       inkscape:connector-curvature="0" />
    <path
       style="fill:url(#linearGradient957);stroke:none;stroke-width:1.58498287px;stroke-linecap:butt;stroke-linejoin:miter;stroke-opacity:1;fill-opacity:1"
       d="m 23.837419,1099.3382 12.679843,-84.0042 48.341949,-0.7923 19.019769,84.004 z"
       id="path6600-6"
       inkscape:connector-curvature="0" />
    <path
       style="fill:#ececec;stroke:none;stroke-width:1.58498287px;stroke-linecap:butt;stroke-linejoin:miter;stroke-opacity:1"
       d="m 57.82813,1092.7144 1.386846,-28.3315 h 6.934233 l 1.981339,27.9352 z"
       id="path6602"
       inkscape:connector-curvature="0" />
    <path
       style="fill:#ececec;stroke:none;stroke-width:1.46857858px;stroke-linecap:butt;stroke-linejoin:miter;stroke-opacity:1"
       d="m 58.863694,1056.7379 0.403354,-18.0457 4.840426,-0.1672 1.613415,18.0456 z"
       id="path6604"
       inkscape:connector-curvature="0" />
    <path
       style="fill:#ececec;stroke:none;stroke-width:1.58498287px;stroke-linecap:butt;stroke-linejoin:miter;stroke-opacity:1"
       d="m 59.267048,1031.8218 -0.396267,-12.2837 4.953075,0.1982 0.990578,11.8873 z"
       id="path6606"
       inkscape:connector-curvature="0" />
  </g>
</svg>
