<?xml version="1.0" encoding="UTF-8" standalone="no"?>
<!-- Created with Sodipodi ("http://www.sodipodi.com/") -->

<svg
   xmlns:dc="http://purl.org/dc/elements/1.1/"
   xmlns:cc="http://creativecommons.org/ns#"
   xmlns:rdf="http://www.w3.org/1999/02/22-rdf-syntax-ns#"
   xmlns:svg="http://www.w3.org/2000/svg"
   xmlns="http://www.w3.org/2000/svg"
   xmlns:xlink="http://www.w3.org/1999/xlink"
   xmlns:sodipodi="http://sodipodi.sourceforge.net/DTD/sodipodi-0.dtd"
   xmlns:inkscape="http://www.inkscape.org/namespaces/inkscape"
   id="svg548"
   sodipodi:version="0.32"
   width="72pt"
   height="72pt"
   sodipodi:docname="package.svg"
   inkscape:version="0.92.4 (5da689c313, 2019-01-14)"
   inkscape:output_extension="org.inkscape.output.svg.inkscape"
   version="1.1"
   inkscape:export-filename="/home/dumao/图片/icons/package-featured.png"
   inkscape:export-xdpi="128"
   inkscape:export-ydpi="128">
  <metadata
     id="metadata27">
    <rdf:RDF>
      <cc:Work
         rdf:about="">
        <dc:format>image/svg+xml</dc:format>
        <dc:type
           rdf:resource="http://purl.org/dc/dcmitype/StillImage" />
        <dc:title></dc:title>
      </cc:Work>
      <cc:Work
         rdf:about="">
        <dc:format>image/svg+xml</dc:format>
        <dc:type
           rdf:resource="http://purl.org/dc/dcmitype/StillImage" />
      </cc:Work>
    </rdf:RDF>
  </metadata>
  <defs
     id="defs550">
    <inkscape:perspective
       sodipodi:type="inkscape:persp3d"
       inkscape:vp_x="-53.333333 : 640 : 1"
       inkscape:vp_y="0 : 1066.6667 : 0"
       inkscape:vp_z="746.66667 : 640 : 1"
       inkscape:persp3d-origin="320 : 426.66667 : 1"
       id="perspective29" />
    <linearGradient
       id="linearGradient569">
      <stop
         style="stop-color:#c57700;stop-opacity:1;"
         offset="0.000000"
         id="stop570" />
      <stop
         style="stop-color:#ffa75f;stop-opacity:0;"
         offset="1.000000"
         id="stop571" />
    </linearGradient>
    <linearGradient
       id="linearGradient559">
      <stop
         style="stop-color:#945700;stop-opacity:1;"
         offset="0.000000"
         id="stop560" />
      <stop
         style="stop-color:#ffa75f;stop-opacity:0;"
         offset="1.000000"
         id="stop561" />
    </linearGradient>
    <linearGradient
       xlink:href="#linearGradient559"
       id="linearGradient562"
       x1="40.9153252"
       y1="31.7318363"
       x2="42.7533417"
       y2="35.4855690"
       gradientUnits="userSpaceOnUse"
       spreadMethod="pad"
       gradientTransform="matrix(1.2287685,0,0,0.7275398,-2.2926162,3.4043829)" />
    <linearGradient
       xlink:href="#linearGradient559"
       id="linearGradient566"
       x1="59.0300407"
       y1="48.8431816"
       x2="58.3435440"
       y2="23.6183739"
       gradientUnits="userSpaceOnUse"
       spreadMethod="pad"
       gradientTransform="matrix(0.5734264,0,0,1.5590094,-2.0078022,3.6891879)" />
    <linearGradient
       xlink:href="#linearGradient569"
       id="linearGradient568"
       x1="92.7804184"
       y1="64.9443817"
       x2="90.8925323"
       y2="42.8786545"
       gradientUnits="userSpaceOnUse"
       spreadMethod="pad"
       gradientTransform="matrix(0.7296653,0,0,1.2251888,-2.2926162,3.4043829)" />
    <linearGradient
       xlink:href="#linearGradient584"
       id="linearGradient587"
       x1="28.252045"
       y1="32.868805"
       x2="68.360306"
       y2="21.479431"
       gradientUnits="userSpaceOnUse"
       spreadMethod="pad"
       gradientTransform="matrix(0.45290579,-0.32250171,0.41442397,0.46456571,37.687643,68.352879)" />
    <linearGradient
       id="linearGradient584">
      <stop
         style="stop-color:#ffffff;stop-opacity:0;"
         offset="0.000000"
         id="stop585" />
      <stop
         style="stop-color:#ffffff;stop-opacity:1;"
         offset="1.000000"
         id="stop586" />
    </linearGradient>
  </defs>
  <sodipodi:namedview
     id="base"
     showgrid="false"
     inkscape:zoom="5.5444445"
     inkscape:cx="10.003406"
     inkscape:cy="37.319137"
     inkscape:window-width="1557"
     inkscape:window-height="1251"
     inkscape:window-x="1008"
     inkscape:window-y="366"
     inkscape:current-layer="svg548"
     inkscape:snap-global="false"
     inkscape:window-maximized="0" />
  <path
     style="fill:#000000;fill-opacity:0.3;fill-rule:evenodd;stroke:none;stroke-width:1.00000003pt;stroke-linecap:butt;stroke-linejoin:miter;stroke-opacity:1"
     d="M 45.973086,88.47479 C 45.114094,88.09887 10.926029,83.253604 10.926029,83.253604 l -3.0923891,1.394269 -0.8589984,-3.49802 2.576987,-3.03514 -2.576987,-0.91956 14.6029405,-10.885364 1.374368,0.976093 0.343613,-2.305753 4.123186,-0.401925 44.667819,9.348027 z"
     id="path594"
     inkscape:connector-curvature="0" />
  <path
     style="fill:#000000;fill-opacity:1;fill-rule:evenodd;stroke:none;stroke-width:0.96474516pt;stroke-linecap:butt;stroke-linejoin:miter;stroke-opacity:1"
     d="m 22.401947,35.383223 c 3.21428,14.234329 3.850759,38.200051 -1.533662,49.168199 L 45.262896,88.12815 77.87481,75.374706 C 76.210578,59.74479 73.779236,43.218426 77.107792,28.132829 l 6.749064,-14.069947 -5.749995,0.752215 0.76669,-3.761419 C 71.571667,6.0932582 62.328103,5.2155862 52.807182,8.4206451 L 52.232209,12.55828 46.673934,7.8564296 C 34.51177,8.3715625 23.459126,11.608523 13.515999,20.833505 Z"
     id="path564"
     sodipodi:nodetypes="ccccccccccccc"
     inkscape:connector-curvature="0" />
  <path
     style="fill:url(#linearGradient562);fill-opacity:1;fill-rule:evenodd;stroke:none;stroke-width:1.00000003pt;stroke-linecap:butt;stroke-linejoin:miter;stroke-opacity:1"
     d="m 54.385432,20.800994 c -0.393614,0 -28.535878,10.036809 -28.535878,10.036809 0,0 2.558439,18.695829 8.068742,19.089442 5.510397,0.393613 39.359724,-26.370958 39.359724,-26.370958"
     id="path558"
     sodipodi:nodetypes="cccc"
     inkscape:connector-curvature="0" />
  <path
     style="fill:#e9a93d;fill-opacity:1;fill-rule:evenodd;stroke:none;stroke-width:1.00000003pt;stroke-linecap:butt;stroke-linejoin:miter;stroke-opacity:1"
     d="m 25.652794,33.002534 18.105456,1.574453 c -2.016098,17.451073 -2.323387,34.047694 0.787132,49.789957 0,0 -18.498974,-1.771118 -18.498974,-2.951958 0,-1.180745 5.017789,-27.797344 -0.393614,-48.412452 z"
     id="path552"
     sodipodi:nodetypes="ccccc"
     inkscape:connector-curvature="0" />
  <path
     style="fill:#ffe6ba;fill-opacity:1;fill-rule:evenodd;stroke:none;stroke-width:1.00000003pt;stroke-linecap:butt;stroke-linejoin:miter;stroke-opacity:1"
     d="m 74.241299,25.415432 -30.876662,9.555169 0.787227,49.593197 c 0,0 29.519769,-11.0207 29.519769,-12.20154 0,-1.180745 -3.987379,-34.875955 0.569666,-46.946826 z"
     id="path553"
     sodipodi:nodetypes="ccccc"
     inkscape:connector-curvature="0" />
  <path
     style="fill:#e3c084;fill-opacity:1;fill-rule:evenodd;stroke:none;stroke-width:1.00000003pt;stroke-linecap:butt;stroke-linejoin:miter;stroke-opacity:1"
     d="m 55.172564,20.801089 -7.47837,-9.446351 C 38.51023,12.618621 28.471909,13.882552 20.142397,21.981834 l 5.116784,9.446341 z"
     id="path556"
     sodipodi:nodetypes="ccccc"
     inkscape:connector-curvature="0" />
  <path
     style="fill:#e3b463;fill-opacity:1;fill-rule:evenodd;stroke:none;stroke-width:1.00000003pt;stroke-linecap:butt;stroke-linejoin:miter;stroke-opacity:1"
     d="m 54.385337,20.997943 20.073428,3.73909 1.574454,-10.233474 C 68.926054,12.138693 62.388556,10.913065 55.566177,12.53554 Z"
     id="path557"
     sodipodi:nodetypes="ccccc"
     inkscape:connector-curvature="0" />
  <path
     style="fill:#c89134;fill-opacity:1;fill-rule:evenodd;stroke:none;stroke-width:1.00000003pt;stroke-linecap:butt;stroke-linejoin:miter;stroke-opacity:1"
     d="m 43.75825,34.576987 c -1.18084,-2.623962 -2.361585,-5.24802 -3.542425,-7.871982 -6.537498,-2.956875 -13.644663,-4.774512 -20.467041,-1.180746 1.83683,2.492727 3.673566,4.985548 5.510397,7.478275 6.166388,0.524849 12.332681,1.049604 18.499069,1.574453 z"
     id="path554"
     sodipodi:nodetypes="ccccc"
     inkscape:connector-curvature="0" />
  <path
     style="fill:#e3c084;fill-opacity:1;fill-rule:evenodd;stroke:none;stroke-width:1.00000003pt;stroke-linecap:butt;stroke-linejoin:miter;stroke-opacity:1"
     d="m 43.364637,35.757733 4.723171,-9.446342 c 10.102332,-5.865717 20.48945,-8.598413 30.306901,-9.052728 -1.50874,2.755199 -3.017576,5.510398 -4.526316,8.265596 z"
     id="path555"
     sodipodi:nodetypes="ccccc"
     inkscape:connector-curvature="0" />
  <path
     style="fill:url(#linearGradient566);fill-opacity:1;fill-rule:evenodd;stroke:none;stroke-width:1.00000003pt;stroke-linecap:butt;stroke-linejoin:miter;stroke-opacity:1"
     d="m 25.937608,33.287339 c 6.035152,0.524849 12.070304,1.049604 18.105456,1.574453 -3.440121,17.735859 -2.038506,33.491824 0.787132,49.518873 0,0 -18.86042,-1.771118 -18.86042,-2.951958 4.535192,-30.772427 0.871447,-42.326068 -0.03217,-48.141368 z"
     id="path565"
     sodipodi:nodetypes="ccccc"
     inkscape:connector-curvature="0" />
  <path
     style="fill:url(#linearGradient568);fill-opacity:1;fill-rule:evenodd;stroke:none;stroke-width:1.00000003pt;stroke-linecap:butt;stroke-linejoin:miter;stroke-opacity:1"
     d="m 64.272945,33.674977 -20.908308,1.295624 0.787227,49.593197 c 0,0 29.519769,-11.0207 29.519769,-12.20154 C 72.587296,54.916453 64.272945,34.06859 64.272945,33.674977 Z"
     id="path567"
     sodipodi:nodetypes="ccccc"
     inkscape:connector-curvature="0" />
  <path
     style="font-size:12px;fill:#ffffff;fill-opacity:0.70434804;fill-rule:evenodd;stroke-width:1.00000003pt"
     d="m 27.858415,72.334463 v 7.0768 l 12.2803,1.8733 v -7.0768 z"
     id="path573"
     sodipodi:nodetypes="ccccc"
     inkscape:connector-curvature="0" />
</svg>
