<?xml version="1.0" encoding="UTF-8" standalone="no"?>
<!-- Created with Inkscape (http://www.inkscape.org/) -->

<svg
   xmlns:dc="http://purl.org/dc/elements/1.1/"
   xmlns:cc="http://creativecommons.org/ns#"
   xmlns:rdf="http://www.w3.org/1999/02/22-rdf-syntax-ns#"
   xmlns:svg="http://www.w3.org/2000/svg"
   xmlns="http://www.w3.org/2000/svg"
   xmlns:sodipodi="http://sodipodi.sourceforge.net/DTD/sodipodi-0.dtd"
   xmlns:inkscape="http://www.inkscape.org/namespaces/inkscape"
   version="1.0"
   x="0.00000000"
   y="0.00000000"
   width="90"
   height="90"
   id="svg548"
   sodipodi:version="0.32"
   sodipodi:docname="zipper-collect.svg"
   inkscape:version="0.92.4 (5da689c313, 2019-01-14)"
   inkscape:output_extension="org.inkscape.output.svg.inkscape"
   inkscape:export-filename="/home/dumao/图片/icons/zipper-collect.png"
   inkscape:export-xdpi="136.53334"
   inkscape:export-ydpi="136.53334">
  <metadata
     id="metadata22">
    <rdf:RDF>
      <cc:Work
         rdf:about="">
        <dc:format>image/svg+xml</dc:format>
        <dc:type
           rdf:resource="http://purl.org/dc/dcmitype/StillImage" />
        <dc:title></dc:title>
      </cc:Work>
    </rdf:RDF>
  </metadata>
  <sodipodi:namedview
     id="base"
     inkscape:zoom="5.3777778"
     inkscape:cx="41.745868"
     inkscape:cy="43.130936"
     inkscape:window-width="1014"
     inkscape:window-height="724"
     inkscape:window-x="1938"
     inkscape:window-y="1062"
     showguides="true"
     snaptoguides="true"
     inkscape:current-layer="svg548"
     width="90px"
     height="90px"
     showgrid="false"
     inkscape:window-maximized="0" />
  <defs
     id="defs550" />
  <path
     d="M 45.60682,9.9385179 C 52.231893,11.480813 77.115658,37.622946 74.268099,42.733907 66.43913,54.926596 29.199187,49.61942 24.349406,47.949075 19.499624,46.278733 16.860634,42.673375 17.456572,39.74476 18.05251,36.816145 38.746798,7.2593177 45.60682,9.9385179 Z"
     style="fill:#000000;fill-rule:evenodd;stroke-width:0.86532086pt"
     id="path582"
     sodipodi:nodetypes="ccscc"
     inkscape:connector-curvature="0" />
  <path
     d="m 45.355601,15.209033 c 5.713333,1.0707701 25.436159,21.157 22.661761,26.04395 C 65.242803,46.140148 55.7711,42.062173 54.414624,45.69416 37.317495,49.401776 21.362957,43.155287 22.046202,40.410929 22.729445,37.666574 39.499386,13.098057 45.355601,15.209033 z"
     style="fill:#ffcc00;fill-rule:evenodd;stroke-width:1pt"
     id="path581"
     sodipodi:nodetypes="ccccc" />
  <path
     d="M 55.734368,46.386001 C 61.008688,46.191631 69.792457,42.599655 69.067947,39.253321 67.985955,33.305769 49.36515,15.453629 46.100295,14.841691 42.835493,14.230122 59.966857,32.816578 56.447601,38.071081 52.928348,43.325585 45.867774,40.026774 45.398765,44.332198 44.929919,48.637414 53.949099,46.896275 55.734368,46.386001 z"
     style="fill:#aa8800;fill-rule:evenodd;stroke-width:1pt"
     id="path583"
     sodipodi:nodetypes="cccccc" />
  <path
     d="m 41.169902,20.113487 c 0,0 -12.394368,12.039773 -13.30216,15.080231 -0.90761107,3.0402662 4.9685749,1.4380641 4.9685749,1.4380641 0,0 6.0994776,-15.416287 8.333586,-16.518295 z"
     style="font-size:12px;fill:#ffffff;fill-rule:evenodd;stroke-width:1pt"
     id="path589" />
  <path
     d="m 45.416885,37.615489 c 6.625073,1.542295 31.508838,27.684428 28.661279,32.795389 -7.828969,12.192689 -45.068912,6.885513 -49.918693,5.215168 -4.849782,-1.670342 -7.488772,-5.2757 -6.892834,-8.204315 0.595938,-2.928615 21.290226,-32.485442 28.150248,-29.806242 z"
     style="fill:#000000;fill-rule:evenodd;stroke-width:0.86532086pt"
     id="path582-6"
     sodipodi:nodetypes="ccscc"
     inkscape:connector-curvature="0" />
  <path
     inkscape:connector-curvature="0"
     d="m 45.165666,42.886004 c 5.713333,1.07077 25.436159,21.157 22.661761,26.04395 -2.774559,4.887165 -12.246262,0.80919 -13.602738,4.441177 C 37.12756,77.078747 21.173022,70.832258 21.856267,68.0879 22.53951,65.343545 39.309451,40.775028 45.165666,42.886004 Z"
     style="fill:#ffcc00;fill-rule:evenodd;stroke-width:1.00000003pt"
     id="path581-7"
     sodipodi:nodetypes="ccccc" />
  <path
     inkscape:connector-curvature="0"
     d="m 55.544433,74.062972 c 5.27432,-0.19437 14.058089,-3.786346 13.333579,-7.13268 C 67.79602,60.98274 49.175215,43.1306 45.91036,42.518662 c -3.264802,-0.611569 13.866562,17.974887 10.347306,23.22939 -3.519253,5.254504 -10.579827,1.955693 -11.048836,6.261117 -0.468846,4.305216 8.550334,2.564077 10.335603,2.053803 z"
     style="fill:#aa8800;fill-rule:evenodd;stroke-width:1.00000003pt"
     id="path583-5"
     sodipodi:nodetypes="cccccc" />
  <path
     inkscape:connector-curvature="0"
     d="m 40.979967,47.790458 c 0,0 -12.394368,12.039773 -13.30216,15.080231 -0.907611,3.040266 4.968575,1.438064 4.968575,1.438064 0,0 6.099477,-15.416287 8.333585,-16.518295 z"
     style="font-size:12px;fill:#ffffff;fill-rule:evenodd;stroke-width:1.00000003pt"
     id="path589-3" />
</svg>
